<svg xmlns="http://www.w3.org/2000/svg" width="1600" height="820" viewBox="0 0 1600 820">
<style>text{font-family:-apple-system, BlinkMacSystemFont, 'Segoe UI', 'Noto Sans CJK SC', 'Microsoft YaHei', 'PingFang SC', sans-serif;}</style>
<rect width="100%" height="100%" fill="#f8fafc"/>
<rect x="50" y="45" width="1500" height="730" rx="36" fill="#ffffff" stroke="#e5e7eb"/>
<text x="100" y="120" font-size="42" font-weight="850" fill="#111827" text-anchor="start" opacity="1">2025 年的五條主線</text>
<text x="100" y="160" font-size="24" font-weight="400" fill="#64748b" text-anchor="start" opacity="1">規模化、制度化、技術化、跨境化、爭議化同时发生。</text>
<rect x="135" y="275" width="230" height="360" rx="34" fill="#ffffff" stroke="#db2777" stroke-width="3"/>
<circle cx="250.0" cy="353" r="46" fill="#db2777" opacity="0.15"/>
<text x="250.0" y="363" font-size="42" font-weight="900" fill="#db2777" text-anchor="middle" opacity="1">1</text>
<text x="250.0" y="435" font-size="30" font-weight="850" fill="#db2777" text-anchor="middle" opacity="1">規模化</text>
<text x="160" y="490.0" font-size="22" font-weight="500" fill="#374151">DW12 千人級、官方 IP 大型展</text>
<text x="160" y="519.7" font-size="22" font-weight="500" fill="#374151">会、暑期節點密集</text>
<rect x="420" y="275" width="230" height="360" rx="34" fill="#ffffff" stroke="#7c3aed" stroke-width="3"/>
<circle cx="535.0" cy="353" r="46" fill="#7c3aed" opacity="0.15"/>
<text x="535.0" y="363" font-size="42" font-weight="900" fill="#7c3aed" text-anchor="middle" opacity="1">2</text>
<text x="535.0" y="435" font-size="30" font-weight="850" fill="#7c3aed" text-anchor="middle" opacity="1">制度化</text>
<text x="445" y="490.0" font-size="22" font-weight="500" fill="#374151">专门活动、WCS 遮面規則、Lag</text>
<text x="445" y="519.7" font-size="22" font-weight="500" fill="#374151">ucos 安全边界</text>
<rect x="705" y="275" width="230" height="360" rx="34" fill="#ffffff" stroke="#059669" stroke-width="3"/>
<circle cx="820.0" cy="353" r="46" fill="#059669" opacity="0.15"/>
<text x="820.0" y="363" font-size="42" font-weight="900" fill="#059669" text-anchor="middle" opacity="1">3</text>
<text x="820.0" y="435" font-size="30" font-weight="850" fill="#059669" text-anchor="middle" opacity="1">技術化</text>
<text x="730" y="490.0" font-size="22" font-weight="500" fill="#374151">Anime North 制面工作坊、新</text>
<text x="730" y="519.7" font-size="22" font-weight="500" fill="#374151">人入门与 makers 体系</text>
<rect x="990" y="275" width="230" height="360" rx="34" fill="#ffffff" stroke="#f97316" stroke-width="3"/>
<circle cx="1105.0" cy="353" r="46" fill="#f97316" opacity="0.15"/>
<text x="1105.0" y="363" font-size="42" font-weight="900" fill="#f97316" text-anchor="middle" opacity="1">4</text>
<text x="1105.0" y="435" font-size="30" font-weight="850" fill="#f97316" text-anchor="middle" opacity="1">跨境化</text>
<text x="1015" y="490.0" font-size="22" font-weight="500" fill="#374151">中日合作、北美工作坊、歐洲延</text>
<text x="1015" y="519.7" font-size="22" font-weight="500" fill="#374151">续线、全球官方 IP</text>
<rect x="1275" y="275" width="230" height="360" rx="34" fill="#ffffff" stroke="#64748b" stroke-width="3"/>
<circle cx="1390.0" cy="353" r="46" fill="#64748b" opacity="0.15"/>
<text x="1390.0" y="363" font-size="42" font-weight="900" fill="#64748b" text-anchor="middle" opacity="1">5</text>
<text x="1390.0" y="435" font-size="30" font-weight="850" fill="#64748b" text-anchor="middle" opacity="1">爭議化</text>
<text x="1300" y="490.0" font-size="22" font-weight="500" fill="#374151">匿名傳聞、網絡骚扰、攝影同意</text>
<text x="1300" y="519.7" font-size="22" font-weight="500" fill="#374151">、税费物流壓力</text>
<text x="800" y="720" font-size="24" font-weight="800" fill="#334155" text-anchor="middle" opacity="1">年度结论：Kigurumi 从“奇观式出现”转向“活动生態 + 產業鏈 + 規則治理”的复合文化。</text>
</svg>