<svg xmlns="http://www.w3.org/2000/svg" width="64" height="64" viewBox="0 0 64 64" role="img" aria-labelledby="title desc">
  <title id="title">Kigurumi Chronicle mark</title>
  <desc id="desc">An archive book mark with a timeline and source dots.</desc>
  <rect width="64" height="64" rx="14" fill="#123a5a"/>
  <path d="M18 13h25c4.4 0 8 3.6 8 8v29H24c-5 0-9-4-9-9V16c0-1.7 1.3-3 3-3Z" fill="#fffdfa"/>
  <path d="M22 13v29c0 4.4 3.6 8 8 8" fill="none" stroke="#d8e1db" stroke-width="3"/>
  <path d="M30 22h12M30 31h10M30 40h13" fill="none" stroke="#31516f" stroke-width="3" stroke-linecap="round"/>
  <path d="M19 21c3.8 1.1 6.1 3.7 7 7.8 1-4.1 3.4-6.7 7.2-7.8-3.8-1.2-6.2-3.9-7.2-8-0.9 4.1-3.2 6.8-7 8Z" fill="#a65372"/>
  <circle cx="44" cy="22" r="3" fill="#247c78"/>
  <circle cx="42" cy="31" r="3" fill="#92733e"/>
  <circle cx="45" cy="40" r="3" fill="#a65372"/>
</svg>
