<svg xmlns="http://www.w3.org/2000/svg" width="1200" height="520" viewBox="0 0 1200 520" role="img" aria-labelledby="title desc">
  <title id="title">档案资料占位图</title>
  <desc id="desc">一张用于示例的档案、地图和照片组合图。</desc>
  <rect width="1200" height="520" fill="#f6f3ea"/>
  <rect x="58" y="62" width="315" height="396" rx="10" fill="#fffdf7" stroke="#d4c8aa" stroke-width="3"/>
  <rect x="442" y="72" width="314" height="372" rx="10" fill="#e9f2ef" stroke="#89a99d" stroke-width="3"/>
  <rect x="824" y="88" width="318" height="336" rx="10" fill="#f8fafc" stroke="#a8b1c1" stroke-width="3"/>
  <path d="M480 344 C550 278, 590 304, 636 240 C662 204, 710 198, 730 150" fill="none" stroke="#357266" stroke-width="12" stroke-linecap="round"/>
  <path d="M470 166 L552 120 L612 166 L692 126 L726 178 L690 250 L608 220 L548 270 L492 238 Z" fill="none" stroke="#5f7f76" stroke-width="5"/>
  <circle cx="552" cy="120" r="10" fill="#c44536"/>
  <circle cx="608" cy="220" r="10" fill="#c44536"/>
  <circle cx="690" cy="250" r="10" fill="#c44536"/>
  <line x1="100" y1="142" x2="330" y2="142" stroke="#b7a77f" stroke-width="9" stroke-linecap="round"/>
  <line x1="100" y1="194" x2="310" y2="194" stroke="#d7caa7" stroke-width="9" stroke-linecap="round"/>
  <line x1="100" y1="246" x2="334" y2="246" stroke="#d7caa7" stroke-width="9" stroke-linecap="round"/>
  <line x1="100" y1="298" x2="284" y2="298" stroke="#d7caa7" stroke-width="9" stroke-linecap="round"/>
  <rect x="866" y="134" width="234" height="152" fill="#dfe7f0"/>
  <path d="M866 286 L936 220 L988 266 L1032 230 L1100 286 Z" fill="#7f9f8f"/>
  <circle cx="1048" cy="170" r="27" fill="#d9a441"/>
  <rect x="866" y="318" width="234" height="22" fill="#cbd5e1"/>
  <rect x="866" y="360" width="174" height="18" fill="#cbd5e1"/>
  <text x="98" y="104" fill="#4b3f2f" font-size="30" font-family="serif">档案节录</text>
  <text x="480" y="118" fill="#31433d" font-size="30" font-family="serif">历史地图</text>
  <text x="866" y="118" fill="#334155" font-size="30" font-family="serif">照片资料</text>
</svg>

