<svg xmlns="http://www.w3.org/2000/svg" width="1700" height="1000" viewBox="0 0 1700 1000">
<style>text{font-family:-apple-system, BlinkMacSystemFont, 'Segoe UI', 'Noto Sans CJK SC', 'Microsoft YaHei', 'PingFang SC', sans-serif;}</style>
<rect width="100%" height="100%" fill="#fdfdfd"/>
<rect x="46" y="40" width="1608" height="920" rx="34" fill="#ffffff" stroke="#e5e7eb"/>
<text x="95" y="110" font-size="42" font-weight="800" fill="#111827" text-anchor="start" opacity="1">Межрегиональная сеть публичных узлов 2025</text>
<text x="95" y="152" font-size="24" font-weight="400" fill="#64748b" text-anchor="start" opacity="1">示意图不追求地理精确；用于展示日本、中国、北美、欧洲多线并行的可见度。</text>
<rect x="90" y="245" width="420" height="560" rx="32" fill="#ffffff" stroke="#0ea5e9" stroke-width="3"/>
<rect x="90" y="245" width="420" height="76" rx="32" fill="#0ea5e9" opacity="0.12"/>
<text x="120" y="291" font-size="30" font-weight="850" fill="#0ea5e9" text-anchor="start" opacity="1">Северная Америка</text>
<text x="120" y="353" font-size="22" font-weight="700" fill="#334155" text-anchor="start" opacity="1">Toronto / Los Angeles</text>
<text x="120" y="395.0" font-size="22" font-weight="450" fill="#475569">入门工作坊、Anime North、Anime Expo、Aniplex офиц.</text>
<text x="120" y="424.7" font-size="22" font-weight="450" fill="#475569"> kigurumi</text>
<rect x="640" y="205" width="420" height="650" rx="32" fill="#ffffff" stroke="#7c3aed" stroke-width="3"/>
<rect x="640" y="205" width="420" height="76" rx="32" fill="#7c3aed" opacity="0.12"/>
<text x="670" y="251" font-size="30" font-weight="850" fill="#7c3aed" text-anchor="start" opacity="1">Япония</text>
<text x="670" y="313" font-size="22" font-weight="700" fill="#334155" text-anchor="start" opacity="1">Tokyo / Kitakyushu / Nagoya / Chiba</text>
<text x="670" y="355.0" font-size="22" font-weight="450" fill="#475569">专门活动、地方交流、WCS правила、FGO/hololive офиц. g</text>
<text x="670" y="384.7" font-size="22" font-weight="450" fill="#475569">reeting</text>
<rect x="1190" y="245" width="420" height="560" rx="32" fill="#ffffff" stroke="#db2777" stroke-width="3"/>
<rect x="1190" y="245" width="420" height="76" rx="32" fill="#db2777" opacity="0.12"/>
<text x="1220" y="291" font-size="30" font-weight="850" fill="#db2777" text-anchor="start" opacity="1">Китай</text>
<text x="1220" y="353" font-size="22" font-weight="700" fill="#334155" text-anchor="start" opacity="1">Heyuan / Doll Weekend</text>
<text x="1220" y="395.0" font-size="22" font-weight="450" fill="#475569">DW12 千人级活动、海外合作、展商与创作者体系</text>
<rect x="640" y="875" width="420" height="70" rx="26" fill="#ffffff" stroke="#f97316" stroke-width="3"/>
<text x="665" y="920" font-size="24" font-weight="700" fill="#f97316" text-anchor="start" opacity="1">Европа: Paris / Japan Expo / линия KaoKig продолжается</text>
<circle cx="180" cy="525" r="24" fill="#059669" opacity="0.95"/>
<text x="180" y="491" font-size="19" font-weight="800" fill="#111827" text-anchor="middle" opacity="1">Anime North</text>
<text x="180" y="516" font-size="19" font-weight="800" fill="#111827" text-anchor="middle" opacity="1">Kig-O workshop</text>
<circle cx="395" cy="610" r="24" fill="#0ea5e9" opacity="0.95"/>
<text x="395" y="576" font-size="19" font-weight="800" fill="#111827" text-anchor="middle" opacity="1">Anime Expo</text>
<text x="395" y="601" font-size="19" font-weight="800" fill="#111827" text-anchor="middle" opacity="1">Aniplex</text>
<circle cx="725" cy="390" r="24" fill="#7c3aed" opacity="0.95"/>
<text x="725" y="356" font-size="19" font-weight="800" fill="#111827" text-anchor="middle" opacity="1">Токио</text>
<text x="725" y="381" font-size="19" font-weight="800" fill="#111827" text-anchor="middle" opacity="1">Kigupa / AJ</text>
<circle cx="860" cy="535" r="24" fill="#dc2626" opacity="0.95"/>
<text x="860" y="501" font-size="19" font-weight="800" fill="#111827" text-anchor="middle" opacity="1">Нагоя/Айти</text>
<text x="860" y="526" font-size="19" font-weight="800" fill="#111827" text-anchor="middle" opacity="1">WCS / Lagucos</text>
<circle cx="760" cy="700" r="24" fill="#7c3aed" opacity="0.95"/>
<text x="760" y="666" font-size="19" font-weight="800" fill="#111827" text-anchor="middle" opacity="1">北九州</text>
<text x="760" y="691" font-size="19" font-weight="800" fill="#111827" text-anchor="middle" opacity="1">KigDai 3/4</text>
<circle cx="940" cy="380" r="24" fill="#0ea5e9" opacity="0.95"/>
<text x="940" y="346" font-size="19" font-weight="800" fill="#111827" text-anchor="middle" opacity="1">Макухари</text>
<text x="940" y="371" font-size="19" font-weight="800" fill="#111827" text-anchor="middle" opacity="1">FGO Fes</text>
<circle cx="1300" cy="535" r="24" fill="#db2777" opacity="0.95"/>
<text x="1300" y="501" font-size="19" font-weight="800" fill="#111827" text-anchor="middle" opacity="1">Doll Weekend</text>
<text x="1300" y="526" font-size="19" font-weight="800" fill="#111827" text-anchor="middle" opacity="1">DW12 河源</text>
<circle cx="1480" cy="410" r="24" fill="#f97316" opacity="0.95"/>
<text x="1480" y="376" font-size="19" font-weight="800" fill="#111827" text-anchor="middle" opacity="1">Doll Weekend ×</text>
<text x="1480" y="401" font-size="19" font-weight="800" fill="#111827" text-anchor="middle" opacity="1">First Klass 日本</text>
<circle cx="850" cy="910" r="24" fill="#f97316" opacity="0.95"/>
<text x="850" y="876" font-size="19" font-weight="800" fill="#111827" text-anchor="middle" opacity="1">Paris</text>
<text x="850" y="901" font-size="19" font-weight="800" fill="#111827" text-anchor="middle" opacity="1">линия KaoKig</text>
<path d="M180,525 C452.5,405 452.5,510 725,390" fill="none" stroke="#94a3b8" stroke-width="3" stroke-dasharray="8 8" opacity="0.65"/>
<path d="M395,610 C667.5,490 667.5,500 940,380" fill="none" stroke="#94a3b8" stroke-width="3" stroke-dasharray="8 8" opacity="0.65"/>
<path d="M1300,535 C1390.0,415 1390.0,530 1480,410" fill="none" stroke="#94a3b8" stroke-width="3" stroke-dasharray="8 8" opacity="0.65"/>
<path d="M1480,410 C1102.5,290 1102.5,510 725,390" fill="none" stroke="#94a3b8" stroke-width="3" stroke-dasharray="8 8" opacity="0.65"/>
<path d="M860,535 C1080.0,415 1080.0,655 1300,535" fill="none" stroke="#94a3b8" stroke-width="3" stroke-dasharray="8 8" opacity="0.65"/>
<path d="M850,910 C855.0,790 855.0,655 860,535" fill="none" stroke="#94a3b8" stroke-width="3" stroke-dasharray="8 8" opacity="0.65"/>
<rect x="95" y="825" width="490" height="82" rx="22" fill="#f8fafc" stroke="#e2e8f0"/>
<text x="120" y="858.0" font-size="22" font-weight="700" fill="#334155">结论：2025 年不是单点爆发，而是多地区同步Институты、商业化与сообщ.化。</text>
</svg>