<svg xmlns="http://www.w3.org/2000/svg" width="1200" height="680" viewBox="0 0 1200 680">
  <defs>
    <linearGradient id="bg" x1="0" y1="0" x2="1" y2="1">
      <stop offset="0%" stop-color="#fff7f9"/>
      <stop offset="55%" stop-color="#f5fbff"/>
      <stop offset="100%" stop-color="#f8fff5"/>
    </linearGradient>
    <filter id="shadow" x="-20%" y="-20%" width="140%" height="140%">
      <feDropShadow dx="0" dy="8" stdDeviation="10" flood-color="#000" flood-opacity="0.14"/>
    </filter>
    <style>
      .title { font-family: 'Noto Sans CJK SC','Microsoft YaHei',Arial,sans-serif; font-size: 34px; font-weight: 800; fill: #263238; }
      .sub { font-family: 'Noto Sans CJK SC','Microsoft YaHei',Arial,sans-serif; font-size: 18px; fill: #52616b; }
      .label { font-family: 'Noto Sans CJK SC','Microsoft YaHei',Arial,sans-serif; font-size: 18px; font-weight: 700; fill: #263238; }
      .small { font-family: 'Noto Sans CJK SC','Microsoft YaHei',Arial,sans-serif; font-size: 14px; fill: #455a64; }
      .tiny { font-family: 'Noto Sans CJK SC','Microsoft YaHei',Arial,sans-serif; font-size: 12px; fill: #607d8b; }
    </style>
  </defs>
  <rect width="100%" height="100%" fill="url(#bg)"/>
  <text x="56" y="62" class="title">2023 → 2024 → 2025：只写前置，不重复后续</text>
  <text x="56" y="94" class="sub">本篇把 2023 看成前置节点；后续扩张已在 2024/2025 篇记录。</text>
  <rect x="70" y="150" width="315" height="60" rx="18" fill="#fff3e0" filter="url(#shadow)"/>
  <text x="228" y="186" text-anchor="middle" class="small" font-weight="700">着ぐFesta 3rd / Night / 4th</text>
<path d="M385,180 L435,180" stroke="#78909c" stroke-width="3" marker-end="url(#arrow2)"/>
  <rect x="440" y="150" width="315" height="60" rx="18" fill="#e8f5e9" filter="url(#shadow)"/>
  <text x="598" y="186" text-anchor="middle" class="small" font-weight="700">2024 5th/6th/Night2nd/kig_Doll</text>
<path d="M755,180 L805,180" stroke="#78909c" stroke-width="3" marker-end="url(#arrow2)"/>
  <rect x="810" y="150" width="315" height="60" rx="18" fill="#e3f2fd" filter="url(#shadow)"/>
  <text x="968" y="186" text-anchor="middle" class="small" font-weight="700">2025 进一步专门化与地方活动</text>
  <rect x="70" y="242" width="315" height="60" rx="18" fill="#fff3e0" filter="url(#shadow)"/>
  <text x="228" y="278" text-anchor="middle" class="small" font-weight="700">DW10：400+ 与首次海外参与者</text>
<path d="M385,272 L435,272" stroke="#78909c" stroke-width="3" marker-end="url(#arrow2)"/>
  <rect x="440" y="242" width="315" height="60" rx="18" fill="#e8f5e9" filter="url(#shadow)"/>
  <text x="598" y="278" text-anchor="middle" class="small" font-weight="700">DW11：500+ 与才艺影像化</text>
<path d="M755,272 L805,272" stroke="#78909c" stroke-width="3" marker-end="url(#arrow2)"/>
  <rect x="810" y="242" width="315" height="60" rx="18" fill="#e3f2fd" filter="url(#shadow)"/>
  <text x="968" y="278" text-anchor="middle" class="small" font-weight="700">DW12：1000+、烟花、无人机、游行</text>
  <rect x="70" y="334" width="315" height="60" rx="18" fill="#fff3e0" filter="url(#shadow)"/>
  <text x="228" y="370" text-anchor="middle" class="small" font-weight="700">WCS2023 完全复活与热中症文本</text>
<path d="M385,364 L435,364" stroke="#78909c" stroke-width="3" marker-end="url(#arrow2)"/>
  <rect x="440" y="334" width="315" height="60" rx="18" fill="#e8f5e9" filter="url(#shadow)"/>
  <text x="598" y="370" text-anchor="middle" class="small" font-weight="700">WCS2024 热中症治理更显性</text>
<path d="M755,364 L805,364" stroke="#78909c" stroke-width="3" marker-end="url(#arrow2)"/>
  <rect x="810" y="334" width="315" height="60" rx="18" fill="#e3f2fd" filter="url(#shadow)"/>
  <text x="968" y="370" text-anchor="middle" class="small" font-weight="700">WCS2025 遮面服装规则更明确</text>
  <rect x="70" y="426" width="315" height="60" rx="18" fill="#fff3e0" filter="url(#shadow)"/>
  <text x="228" y="462" text-anchor="middle" class="small" font-weight="700">FGO AJ / FGO Fes 2023</text>
<path d="M385,456 L435,456" stroke="#78909c" stroke-width="3" marker-end="url(#arrow2)"/>
  <rect x="440" y="426" width="315" height="60" rx="18" fill="#e8f5e9" filter="url(#shadow)"/>
  <text x="598" y="462" text-anchor="middle" class="small" font-weight="700">FGO 2024 展位与 9 周年</text>
<path d="M755,456 L805,456" stroke="#78909c" stroke-width="3" marker-end="url(#arrow2)"/>
  <rect x="810" y="426" width="315" height="60" rx="18" fill="#e3f2fd" filter="url(#shadow)"/>
  <text x="968" y="462" text-anchor="middle" class="small" font-weight="700">FGO 2025 十周年大规模呈现</text>
  <rect x="70" y="518" width="315" height="60" rx="18" fill="#fff3e0" filter="url(#shadow)"/>
  <text x="228" y="554" text-anchor="middle" class="small" font-weight="700">hololive 玩具展 greeting</text>
<path d="M385,548 L435,548" stroke="#78909c" stroke-width="3" marker-end="url(#arrow2)"/>
  <rect x="440" y="518" width="315" height="60" rx="18" fill="#e8f5e9" filter="url(#shadow)"/>
  <text x="598" y="554" text-anchor="middle" class="small" font-weight="700">hololive SUPER EXPO 2024</text>
<path d="M755,548 L805,548" stroke="#78909c" stroke-width="3" marker-end="url(#arrow2)"/>
  <rect x="810" y="518" width="315" height="60" rx="18" fill="#e3f2fd" filter="url(#shadow)"/>
  <text x="968" y="554" text-anchor="middle" class="small" font-weight="700">hololive SUPER EXPO 2025 roster 扩展</text>
  <defs><marker id="arrow2" markerWidth="10" markerHeight="10" refX="8" refY="3" orient="auto" markerUnits="strokeWidth"><path d="M0,0 L0,6 L9,3 z" fill="#78909c"/></marker></defs>
  <text x="228" y="608" class="label" text-anchor="middle">2023</text>
  <text x="598" y="608" class="label" text-anchor="middle">2024</text>
  <text x="968" y="608" class="label" text-anchor="middle">2025</text>
</svg>
