<svg xmlns="http://www.w3.org/2000/svg" width="1200" height="700" viewBox="0 0 1200 700">
<rect width="100%" height="100%" fill="#FBFAF7"/>
<rect x="0" y="0" width="1200" height="16" fill="#EC4899"/>
<circle cx="1110" cy="90" r="55" fill="#EC4899" opacity="0.14"/>
<circle cx="1055" cy="135" r="35" fill="#FFB86B" opacity="0.18"/>
<text x="58" y="78" font-size="32" font-weight="700" fill="#111827" font-family="Inter, Arial, sans-serif">Doll Weekend 11: ключевой узел Китая 2024</text>
<text x="60" y="116" font-size="14" font-weight="400" fill="#4B5563" font-family="Inter, Arial, sans-serif">Фошань «дворец талантов»: от офлайн-встречи к видеоархиву и сцене</text>
<rect x="60" y="134" width="500" height="142" rx="20" fill="#FFFFFF" stroke="#E5E7EB"/>
<rect x="60" y="134" width="10" height="142" rx="5" fill="#EC4899"/>
<text x="88" y="170" font-size="21" font-weight="700" fill="#111827" font-family="Inter, Arial, sans-serif">Время и место</text>
<text x="88" y="204" font-size="15" font-weight="400" fill="#374151" font-family="Inter, Arial, sans-serif">ноябрь 2024</text>
<text x="88" y="231" font-size="15" font-weight="400" fill="#374151" font-family="Inter, Arial, sans-serif">Гуандун · Фошань</text>
<text x="88" y="258" font-size="15" font-weight="400" fill="#374151" font-family="Inter, Arial, sans-serif">официальная страница прошлых событий</text>
<rect x="610" y="134" width="500" height="142" rx="20" fill="#FFFFFF" stroke="#E5E7EB"/>
<rect x="610" y="134" width="10" height="142" rx="5" fill="#EC4899"/>
<text x="638" y="170" font-size="21" font-weight="700" fill="#111827" font-family="Inter, Arial, sans-serif">Масштаб</text>
<text x="638" y="204" font-size="15" font-weight="400" fill="#374151" font-family="Inter, Arial, sans-serif">более 500 участников</text>
<text x="638" y="231" font-size="15" font-weight="400" fill="#374151" font-family="Inter, Arial, sans-serif">раньше 1000+ масштаба DW12 2025</text>
<text x="638" y="258" font-size="15" font-weight="400" fill="#374151" font-family="Inter, Arial, sans-serif">показывает стадию роста 2024</text>
<rect x="60" y="324" width="500" height="142" rx="20" fill="#FFFFFF" stroke="#E5E7EB"/>
<rect x="60" y="324" width="10" height="142" rx="5" fill="#EC4899"/>
<text x="88" y="360" font-size="21" font-weight="700" fill="#111827" font-family="Inter, Arial, sans-serif">Тема</text>
<text x="88" y="394" font-size="15" font-weight="400" fill="#374151" font-family="Inter, Arial, sans-serif">Дворец талантов</text>
<text x="88" y="421" font-size="15" font-weight="400" fill="#374151" font-family="Inter, Arial, sans-serif">полная запись doll talent show</text>
<text x="88" y="448" font-size="15" font-weight="400" fill="#374151" font-family="Inter, Arial, sans-serif">профессиональное видео как дань любви</text>
<rect x="610" y="324" width="500" height="142" rx="20" fill="#FFFFFF" stroke="#E5E7EB"/>
<rect x="610" y="324" width="10" height="142" rx="5" fill="#EC4899"/>
<text x="638" y="360" font-size="21" font-weight="700" fill="#111827" font-family="Inter, Arial, sans-serif">Культурный смысл</text>
<text x="638" y="394" font-size="15" font-weight="400" fill="#374151" font-family="Inter, Arial, sans-serif">wa/Kig — не только фото</text>
<text x="638" y="421" font-size="15" font-weight="400" fill="#374151" font-family="Inter, Arial, sans-serif">сцена, номера, видеопроизводство</text>
<text x="638" y="448" font-size="15" font-weight="400" fill="#374151" font-family="Inter, Arial, sans-serif">самоорганизация китайского круга растет</text>
<rect x="60" y="514" width="500" height="142" rx="20" fill="#FFFFFF" stroke="#E5E7EB"/>
<rect x="60" y="514" width="10" height="142" rx="5" fill="#EC4899"/>
<text x="88" y="550" font-size="21" font-weight="700" fill="#111827" font-family="Inter, Arial, sans-serif">Разведение с 2025</text>
<text x="88" y="584" font-size="15" font-weight="400" fill="#374151" font-family="Inter, Arial, sans-serif">не повторяет фейерверки/дроны DW12</text>
<text x="88" y="611" font-size="15" font-weight="400" fill="#374151" font-family="Inter, Arial, sans-serif">только версия DW11 в Фошане</text>
<text x="88" y="638" font-size="15" font-weight="400" fill="#374151" font-family="Inter, Arial, sans-serif">предыстория расширения 2025</text>
<rect x="610" y="514" width="500" height="142" rx="20" fill="#FFFFFF" stroke="#E5E7EB"/>
<rect x="610" y="514" width="10" height="142" rx="5" fill="#EC4899"/>
<text x="638" y="550" font-size="21" font-weight="700" fill="#111827" font-family="Inter, Arial, sans-serif">Уровень источников</text>
<text x="638" y="584" font-size="15" font-weight="400" fill="#374151" font-family="Inter, Arial, sans-serif">основа — официальная страница</text>
<text x="638" y="611" font-size="15" font-weight="400" fill="#374151" font-family="Inter, Arial, sans-serif">видео и участники — дополнение</text>
<text x="638" y="638" font-size="15" font-weight="400" fill="#374151" font-family="Inter, Arial, sans-serif">закрытые материалы не используются</text>
</svg>