<svg xmlns="http://www.w3.org/2000/svg" width="1200" height="700" viewBox="0 0 1200 700">
<rect width="100%" height="100%" fill="#FBFAF7"/>
<rect x="0" y="0" width="1200" height="16" fill="#6C63FF"/>
<circle cx="1110" cy="90" r="55" fill="#6C63FF" opacity="0.14"/>
<circle cx="1055" cy="135" r="35" fill="#FFB86B" opacity="0.18"/>
<text x="58" y="78" font-size="32" font-weight="700" fill="#111827" font-family="Inter, Arial, sans-serif">Слои экосистемы 2024</text>
<text x="60" y="116" font-size="14" font-weight="400" fill="#4B5563" font-family="Inter, Arial, sans-serif">Разделение по типу источников: official mascots, animegao, doll-события и обычный cosplay не смешиваются.</text>
<rect x="60" y="134" width="500" height="142" rx="20" fill="#FFFFFF" stroke="#E5E7EB"/>
<rect x="60" y="134" width="10" height="142" rx="5" fill="#6C63FF"/>
<text x="88" y="170" font-size="21" font-weight="700" fill="#111827" font-family="Inter, Arial, sans-serif">Профильные fan-события</text>
<text x="88" y="204" font-size="15" font-weight="400" fill="#374151" font-family="Inter, Arial, sans-serif">着ぐFesta 5/6, kig_Doll</text>
<text x="88" y="231" font-size="15" font-weight="400" fill="#374151" font-family="Inter, Arial, sans-serif">Kigurumi Party 1/2</text>
<text x="88" y="258" font-size="15" font-weight="400" fill="#374151" font-family="Inter, Arial, sans-serif">Kigurumi Daikoushin 1/2</text>
<rect x="610" y="134" width="500" height="142" rx="20" fill="#FFFFFF" stroke="#E5E7EB"/>
<rect x="610" y="134" width="10" height="142" rx="5" fill="#6C63FF"/>
<text x="638" y="170" font-size="21" font-weight="700" fill="#111827" font-family="Inter, Arial, sans-serif">Official IP greeting</text>
<text x="638" y="204" font-size="15" font-weight="400" fill="#374151" font-family="Inter, Arial, sans-serif">hololive SUPER EXPO 2024</text>
<text x="638" y="231" font-size="15" font-weight="400" fill="#374151" font-family="Inter, Arial, sans-serif">FGO AnimeJapan / FGO Fes</text>
<text x="638" y="258" font-size="15" font-weight="400" fill="#374151" font-family="Inter, Arial, sans-serif">C105 hololive corporate booth</text>
<rect x="60" y="324" width="500" height="142" rx="20" fill="#FFFFFF" stroke="#E5E7EB"/>
<rect x="60" y="324" width="10" height="142" rx="5" fill="#6C63FF"/>
<text x="88" y="360" font-size="21" font-weight="700" fill="#111827" font-family="Inter, Arial, sans-serif">Крупные выставки</text>
<text x="88" y="394" font-size="15" font-weight="400" fill="#374151" font-family="Inter, Arial, sans-serif">WCS 2024, C104/C105</text>
<text x="88" y="421" font-size="15" font-weight="400" fill="#374151" font-family="Inter, Arial, sans-serif">жара, маршруты, проверка</text>
<text x="88" y="448" font-size="15" font-weight="400" fill="#374151" font-family="Inter, Arial, sans-serif">давление правил публичных мест</text>
<rect x="610" y="324" width="500" height="142" rx="20" fill="#FFFFFF" stroke="#E5E7EB"/>
<rect x="610" y="324" width="10" height="142" rx="5" fill="#6C63FF"/>
<text x="638" y="360" font-size="21" font-weight="700" fill="#111827" font-family="Inter, Arial, sans-serif">Китайская Doll/Kig-линия</text>
<text x="638" y="394" font-size="15" font-weight="400" fill="#374151" font-family="Inter, Arial, sans-serif">Doll Weekend 11</text>
<text x="638" y="421" font-size="15" font-weight="400" fill="#374151" font-family="Inter, Arial, sans-serif">Фошань, «дворец талантов»</text>
<text x="638" y="448" font-size="15" font-weight="400" fill="#374151" font-family="Inter, Arial, sans-serif">более 500 участников</text>
<rect x="60" y="514" width="500" height="142" rx="20" fill="#FFFFFF" stroke="#E5E7EB"/>
<rect x="60" y="514" width="10" height="142" rx="5" fill="#6C63FF"/>
<text x="88" y="550" font-size="21" font-weight="700" fill="#111827" font-family="Inter, Arial, sans-serif">Знания и исследование</text>
<text x="88" y="584" font-size="15" font-weight="400" fill="#374151" font-family="Inter, Arial, sans-serif">Advent Calendar 25/25</text>
<text x="88" y="611" font-size="15" font-weight="400" fill="#374151" font-family="Inter, Arial, sans-serif">160 ответов в опросе</text>
<text x="88" y="638" font-size="15" font-weight="400" fill="#374151" font-family="Inter, Arial, sans-serif">отчеты и разбор опыта</text>
<rect x="610" y="514" width="500" height="142" rx="20" fill="#FFFFFF" stroke="#E5E7EB"/>
<rect x="610" y="514" width="10" height="142" rx="5" fill="#6C63FF"/>
<text x="638" y="550" font-size="21" font-weight="700" fill="#111827" font-family="Inter, Arial, sans-serif">Индустрия и создание</text>
<text x="638" y="584" font-size="15" font-weight="400" fill="#374151" font-family="Inter, Arial, sans-serif">новая beginner mask Anime North</text>
<text x="638" y="611" font-size="15" font-weight="400" fill="#374151" font-family="Inter, Arial, sans-serif">маски/костюмы/фото/doujin</text>
<text x="638" y="638" font-size="15" font-weight="400" fill="#374151" font-family="Inter, Arial, sans-serif">maker и dealer-сцена</text>
</svg>